<svg version="1.1" id="Layer_1" xmlns="http://www.w3.org/2000/svg" xmlns:xlink="http://www.w3.org/1999/xlink" x="0px" y="0px"
	 width="100%" viewBox="0 0 315 301" enable-background="new 0 0 315 301" xml:space="preserve">

<path fill="#711D4D" opacity="1.000000" stroke="none" 
	d="
M296.803864,141.690475 
	C295.122131,157.815338 279.670837,167.817459 264.579926,162.584106 
	C263.187866,162.101364 261.639740,161.440079 260.267822,161.626190 
	C247.793533,163.318542 235.903748,166.119781 229.847641,179.085251 
	C228.583542,181.791534 227.160309,184.440186 225.607559,186.991943 
	C220.128540,195.996140 209.744141,200.785583 199.462296,198.336197 
	C189.141388,195.877502 179.831039,197.162125 170.854385,202.940094 
	C163.592941,207.614059 155.881516,211.583771 148.436310,215.978729 
	C138.346970,221.934525 137.002960,227.602371 142.829727,237.874451 
	C145.514084,242.606720 148.440323,247.324448 150.225967,252.410675 
	C152.156219,257.908722 149.706680,263.278259 145.746155,264.838837 
	C141.786621,266.399048 137.061188,264.415771 134.079010,259.392090 
	C132.404770,256.571686 131.381943,253.350143 130.187683,250.262131 
	C127.215416,242.576706 120.471634,238.350311 113.072174,239.621460 
	C106.401726,240.767349 102.856483,244.559143 102.166885,251.302582 
	C102.065300,252.295959 102.048546,253.298340 101.937439,254.290375 
	C100.759018,264.812225 95.723015,268.223267 85.983841,264.208527 
	C78.328491,261.052765 71.766777,261.444672 64.934479,266.351440 
	C58.196800,271.190277 50.842339,275.165802 43.801075,279.587860 
	C37.863613,283.316742 31.787441,283.689636 26.000521,279.716492 
	C20.423998,275.887817 18.342876,270.331726 19.641611,263.571869 
	C20.457043,259.327606 21.104353,255.051041 22.360737,250.395172 
	C23.687771,250.025711 24.481159,250.050034 25.271370,250.471649 
	C25.069315,251.906479 24.870441,252.944046 24.335657,254.088348 
	C22.812849,256.346619 21.715359,258.485168 24.955669,260.274292 
	C25.386496,261.304657 25.703634,262.072876 25.898521,263.635620 
	C25.659901,264.953278 25.543537,265.476410 25.111328,265.766846 
	C24.175043,265.897247 22.977186,266.486267 23.017986,266.590546 
	C24.280355,269.816071 25.663866,272.994171 27.137157,276.369537 
	C27.445097,276.789825 27.694471,276.933960 28.285091,277.090149 
	C28.753187,277.292328 28.929907,277.396210 29.212280,277.619446 
	C29.488136,277.875366 29.678919,277.971039 30.277550,278.119812 
	C34.302418,277.697784 38.433044,278.108704 41.482533,276.486816 
	C49.692478,272.120300 57.588959,267.107086 65.324799,261.925049 
	C71.239983,257.962616 77.090385,257.338043 83.744087,259.654907 
	C96.197258,263.991211 97.560677,263.041290 98.832741,249.834702 
	C99.486755,243.044647 103.211220,238.869308 109.430550,236.758408 
	C119.403854,233.373398 130.424469,239.098404 133.828568,249.313843 
	C134.510712,251.360886 134.865265,253.604919 135.949448,255.410767 
	C137.850784,258.577576 139.795456,263.236664 144.389893,261.229584 
	C148.778717,259.312317 147.616226,254.502960 146.206100,251.051285 
	C144.527466,246.942291 141.825287,243.250778 139.559860,239.382309 
	C132.808121,227.852890 135.051620,219.440628 146.734573,212.711807 
	C154.808670,208.061523 163.066315,203.710953 170.972290,198.792969 
	C179.045471,193.770966 187.468430,192.329330 196.746643,194.099411 
	C211.655304,196.943665 218.467529,193.724884 224.991364,180.251282 
	C229.846497,170.223984 236.782501,163.092010 247.873657,160.449524 
	C251.128845,159.673965 254.301743,158.552917 257.186188,157.688034 
	C252.617645,149.325211 248.723373,141.019379 243.797089,133.378967 
	C220.157440,96.715134 186.214264,74.124664 144.813248,62.050083 
	C130.527420,57.883629 115.884247,56.157845 100.666336,56.532845 
	C98.272247,59.316856 96.207939,62.213108 93.906631,65.352386 
	C92.014984,68.604294 90.231705,71.554382 88.808319,74.668945 
	C88.503738,75.335388 89.504097,76.598198 90.168915,77.768143 
	C101.257156,82.412582 103.179924,91.885658 103.705185,102.259811 
	C101.584816,114.972771 94.495041,124.522041 86.148018,133.281647 
	C78.804398,140.988235 70.129219,145.666229 58.799713,143.664932 
	C55.721970,143.576828 55.339596,144.842484 56.967411,147.262344 
	C56.966309,147.504791 56.854939,147.976715 56.578892,148.020355 
	C56.169865,148.698151 56.036884,149.332291 55.850338,150.301865 
	C54.823288,152.421936 53.849800,154.206604 52.591789,156.032272 
	C52.224831,156.722519 52.142395,157.371750 52.050407,158.277054 
	C51.960484,158.683868 51.880108,158.834625 51.346897,158.994720 
	C49.992489,159.093994 49.090916,159.183929 48.189342,159.273865 
	C51.033298,150.218033 54.430153,141.610687 54.690262,131.580978 
	C55.058994,117.362762 60.554863,103.915726 68.361740,91.960747 
	C71.980263,86.419571 77.530899,82.143463 82.179474,77.268906 
	C83.177528,76.222321 84.257523,75.179214 84.962822,73.942375 
	C86.936874,70.480591 88.714828,66.907600 90.607094,63.398403 
	C92.802834,59.326420 95.412292,55.915226 92.381973,50.432938 
	C90.770035,47.516705 91.903450,42.025623 93.606010,38.593948 
	C95.895164,33.979908 99.931053,30.232466 103.820961,26.219347 
	C104.612335,27.204693 104.799919,28.083735 104.797432,29.238073 
	C102.445854,32.344872 100.284348,35.176380 97.803177,38.190350 
	C95.457901,42.789104 93.143417,47.194229 97.205460,52.189369 
	C99.070442,52.740860 100.688560,53.059479 102.316238,53.119556 
	C119.133682,53.740326 135.665924,55.886692 151.818985,60.951843 
	C179.817429,69.731369 204.278534,84.431061 225.081894,104.940361 
	C237.442657,117.126381 247.679474,131.056458 254.706055,147.151306 
	C257.535278,153.631851 261.858826,159.106171 269.390839,159.949219 
	C281.995789,161.360107 290.891846,154.481262 293.903992,142.007080 
	C295.148621,141.892044 295.976257,141.791260 296.803864,141.690475 
M75.999695,87.999863 
	C75.999695,87.999863 75.968460,87.955902 75.297729,88.162239 
	C75.176971,88.771400 75.056213,89.380554 74.998428,89.996956 
	C74.998428,89.996956 74.982193,89.935692 74.357147,89.604935 
	C73.882736,90.074287 73.408325,90.543648 72.448341,91.037987 
	C72.193954,91.193138 71.939560,91.348289 71.685165,91.503433 
	C72.095665,91.677177 72.506172,91.850922 72.829994,92.476227 
	C72.669701,92.756897 72.435333,92.945557 71.381294,93.094803 
	C70.603485,94.435822 69.825668,95.776833 68.920090,97.803520 
	C66.980675,102.221680 65.041252,106.639839 62.968140,111.002670 
	C62.968140,111.002670 62.823708,111.011368 62.256989,111.090805 
	C62.220284,111.745018 62.183578,112.399223 61.989532,113.535126 
	C61.938686,113.696205 61.887836,113.857277 61.556652,114.205612 
	C61.655682,114.464127 61.754715,114.722641 61.779194,115.554199 
	C61.473145,116.042549 61.167095,116.530899 60.412563,117.245277 
	C60.327538,117.848824 60.242512,118.452370 60.038975,119.707954 
	C59.972549,120.144440 59.906128,120.580917 59.557030,121.202515 
	C59.653778,121.463020 59.750526,121.723518 59.731571,122.620369 
	C59.441120,123.421501 59.150669,124.222633 58.338383,125.310204 
	C58.277508,126.225151 58.216629,127.140091 58.045582,128.798141 
	C57.985622,129.546555 57.925667,130.294968 57.369553,131.549957 
	C57.524673,133.346359 57.679794,135.142776 57.927982,137.758179 
	C59.108681,138.844116 60.325169,140.883804 61.463509,140.841095 
	C65.208160,140.700562 69.302467,140.607635 72.586189,139.060806 
	C86.709473,132.407913 94.979362,120.350594 99.474159,106.041039 
	C101.244270,100.405739 101.823509,93.456841 96.900833,87.320381 
	C94.650047,85.544464 92.399269,83.768547 89.803223,81.331261 
	C85.552361,78.571228 82.506187,80.329742 80.000000,83.999084 
	C80.000000,83.999084 79.958031,83.953888 79.280457,83.905365 
	C78.504326,84.924660 77.728195,85.943947 76.996277,87.002068 
	C76.996277,87.002068 76.969147,86.950157 76.375114,86.946228 
	C76.233269,87.290802 76.091423,87.635376 75.999695,87.999863 
z"/>
<path fill="#752657" opacity="1.000000" stroke="none" 
	d="
M104.987511,28.962778 
	C104.799919,28.083735 104.612335,27.204693 104.143936,26.126011 
	C108.317612,21.896807 113.635689,20.619173 119.500603,20.861851 
	C167.085602,22.830814 208.758957,39.960629 245.284760,70.095100 
	C263.377075,85.021606 278.661957,102.494461 291.324615,122.254784 
	C294.994324,127.981415 297.435638,134.041534 296.908142,141.340973 
	C295.976257,141.791260 295.148621,141.892044 293.830017,141.698471 
	C293.260437,140.988892 293.181885,140.573654 293.133911,139.805145 
	C293.112061,138.987610 293.059631,138.523346 293.072510,137.649078 
	C291.702728,133.213364 291.009247,128.697952 288.722382,125.234734 
	C248.670395,64.580757 193.587402,29.004906 119.937531,24.534348 
	C114.249634,24.189095 109.556755,26.094625 104.987511,28.962778 
z"/>
<path fill="#711D4D" opacity="1.000000" stroke="none" 
	d="
M22.434135,247.881287 
	C23.383221,243.168472 24.171240,238.416000 25.319681,233.752274 
	C26.983187,226.996887 28.522352,220.395874 27.828329,213.215500 
	C27.106396,205.746368 29.852173,198.856476 35.352837,193.384277 
	C36.400219,194.236557 36.738914,194.645203 36.933662,195.354919 
	C35.104565,199.431534 33.419403,203.207077 31.452843,207.038788 
	C31.191107,207.756943 31.210770,208.418900 31.237923,209.496719 
	C31.255453,212.103119 31.265493,214.293686 31.146048,216.787460 
	C31.616570,217.718506 32.216576,218.346329 32.871902,219.308136 
	C32.949581,220.092865 32.971939,220.543625 32.730595,221.206253 
	C31.977257,222.932785 31.487623,224.447418 30.735596,225.988922 
	C30.315355,226.678253 30.157507,227.340729 30.004526,228.287964 
	C30.025190,228.761932 30.040989,228.951141 30.014967,229.362076 
	C29.973145,229.583786 29.765783,229.984589 29.485340,230.035004 
	C29.185278,230.740524 29.165659,231.395645 29.142681,232.442245 
	C28.653553,234.882736 28.167786,236.931747 27.410488,239.034256 
	C27.125383,239.736450 27.111809,240.385117 27.104626,241.429535 
	C26.666014,243.878738 26.221012,245.932236 25.359310,247.990082 
	C24.106451,247.956741 23.270294,247.919022 22.434135,247.881287 
z"/>
<path fill="#752657" opacity="1.000000" stroke="none" 
	d="
M48.037056,159.525482 
	C49.090916,159.183929 49.992489,159.093994 51.325878,159.359909 
	C49.165291,167.815125 46.572887,175.914474 43.989082,183.993561 
	C43.997681,183.973267 44.041031,183.985779 43.716152,183.986862 
	C43.291763,184.614960 43.192253,185.241959 43.060238,185.941650 
	C43.027737,186.014343 42.933563,186.142746 42.546661,186.102509 
	C41.122940,186.043106 40.086117,186.023941 39.049297,186.004791 
	C41.994453,177.262222 44.939610,168.519669 48.037056,159.525482 
z"/>
<path fill="#711D4D" opacity="1.000000" stroke="none" 
	d="
M38.862667,186.300507 
	C40.086117,186.023941 41.122940,186.043106 42.604492,186.420364 
	C43.385761,187.577469 43.722301,188.376465 43.914673,189.435730 
	C42.847858,190.733566 41.925213,191.771149 40.672020,192.870239 
	C39.253521,193.639130 38.165562,194.346481 37.077606,195.053833 
	C36.738914,194.645203 36.400219,194.236557 35.636742,193.148315 
	C36.366653,190.511200 37.521343,188.553711 38.862667,186.300507 
z"/>
<path fill="#752657" opacity="1.000000" stroke="none" 
	d="
M22.286205,248.116638 
	C23.270294,247.919022 24.106451,247.956741 25.396103,248.268753 
	C25.657917,249.053482 25.466236,249.563919 25.274551,250.074356 
	C24.481159,250.050034 23.687771,250.025711 22.497387,250.004028 
	C22.113020,249.455093 22.125647,248.903534 22.286205,248.116638 
z"/>
<path fill="#FEC928" opacity="1.000000" stroke="none" 
	d="
M103.971779,101.995422 
	C103.179924,91.885658 101.257156,82.412582 90.388550,77.461090 
	C92.193832,73.317589 94.045090,69.663010 96.096649,65.955002 
	C96.296951,65.901581 96.692238,65.776466 97.156036,65.845795 
	C117.392143,66.740517 136.232513,71.546211 154.355713,79.319901 
	C155.397217,79.766647 156.093857,81.017448 156.534439,81.930130 
	C143.130981,83.395638 132.979370,89.731201 125.298447,100.095917 
	C121.571861,105.124626 119.902382,110.740341 121.755424,117.200356 
	C121.870186,123.548630 124.937447,126.586479 131.086823,126.979057 
	C141.055771,127.615486 149.549545,123.573166 157.419022,118.183342 
	C160.634995,115.980721 163.081177,112.654129 166.066040,109.565094 
	C171.224258,103.885498 175.609787,98.280106 172.970001,89.966599 
	C173.927414,89.897850 174.805817,89.881134 175.432526,90.270027 
	C196.483551,103.332970 214.623398,119.466324 228.236801,140.379990 
	C233.572784,148.577438 233.588425,150.663544 227.574127,157.979279 
	C219.924774,160.158951 212.678360,162.430222 205.443207,164.697952 
	C202.144547,147.489670 192.196167,139.710495 174.746063,141.381714 
	C157.445770,143.038559 142.998627,150.721924 131.212433,163.404205 
	C126.670265,168.291702 123.809792,174.030167 123.126381,181.010986 
	C120.615913,188.848938 122.686707,193.580429 129.406052,197.270142 
	C132.531982,198.986664 135.351669,201.260941 138.124115,203.495316 
	C137.628067,204.134918 137.318054,204.561600 136.797638,205.249069 
	C134.261124,207.058212 132.020340,208.758224 129.591858,210.124634 
	C123.785667,213.391602 117.891068,216.501450 111.656876,219.737808 
	C108.907333,220.984406 106.404045,221.965607 104.179718,223.384216 
	C89.480949,232.758698 74.983749,242.458084 60.125626,251.570190 
	C52.385178,256.317230 44.136181,260.278656 35.924992,264.192291 
	C32.788074,265.687439 29.107243,266.108246 26.442896,262.411987 
	C28.517458,251.954971 30.507362,241.837021 32.850082,231.807404 
	C37.224960,232.497055 41.437538,234.169754 45.232662,233.494904 
	C55.800007,231.615768 63.929062,225.195831 70.250916,216.809982 
	C72.283623,214.113663 72.696465,210.196182 73.943787,206.473083 
	C74.660118,204.056488 75.450066,202.038376 75.878700,199.946228 
	C78.555466,186.881149 68.403572,176.946732 55.406418,180.014297 
	C52.386955,180.726944 49.538044,182.162186 46.665867,182.862823 
	C47.741371,178.026474 49.314739,174.459045 53.958141,172.031738 
	C59.954945,168.896957 61.363831,162.693970 58.903011,158.157578 
	C57.778049,156.083771 57.774521,153.401657 57.591942,151.167374 
	C59.687798,151.362183 61.553810,151.772827 63.205074,151.348251 
	C80.820007,146.819199 93.465614,135.918091 101.692429,120.009079 
	C104.518341,114.544312 106.796501,108.443810 103.971779,101.995422 
M126.413086,88.036636 
	C126.486862,86.836426 126.560631,85.636223 126.634415,84.436012 
	C124.611931,84.628242 122.494537,84.534973 120.615791,85.159561 
	C119.908936,85.394554 119.755424,87.294052 119.349648,88.434723 
	C120.778549,88.832489 122.189697,89.402405 123.644157,89.552437 
	C124.329582,89.623138 125.098160,88.887642 126.413086,88.036636 
M123.592842,139.996094 
	C125.810913,138.931534 128.028976,137.866989 130.846313,136.514832 
	C127.111618,133.059128 124.739815,133.606689 122.550537,135.986252 
	C121.311256,137.333237 119.874863,138.837082 123.592842,139.996094 
M189.639664,119.538628 
	C185.367416,116.922752 183.596710,117.576462 181.366531,122.749977 
	C185.204483,125.424332 187.654266,123.579941 189.639664,119.538628 
M44.243145,242.058273 
	C42.457573,242.608719 40.671997,243.159180 38.886429,243.709625 
	C39.327625,245.095688 39.571720,247.521179 40.251293,247.650040 
	C41.638874,247.913162 43.659992,247.339661 44.654812,246.345184 
	C45.396873,245.603378 44.937229,243.659454 44.243145,242.058273 
M100.773071,211.580109 
	C101.755745,210.277573 102.738419,208.975037 103.721092,207.672501 
	C102.443596,207.172211 100.798615,205.924759 99.968086,206.333237 
	C98.425453,207.091965 97.357979,208.816818 96.092674,210.139420 
	C97.404022,210.710358 98.715363,211.281296 100.773071,211.580109 
M91.634727,176.940979 
	C91.273323,178.227203 90.451866,179.629517 90.735336,180.753052 
	C90.888008,181.358170 93.299232,182.122971 94.048225,181.693634 
	C95.529312,180.844635 96.563553,179.216064 97.782532,177.909790 
	C95.941833,177.432510 94.101143,176.955231 91.634727,176.940979 
z"/>
<path fill="#D19233" opacity="1.000000" stroke="none" 
	d="
M156.950989,81.894043 
	C156.093857,81.017448 155.397217,79.766647 154.355713,79.319901 
	C136.232513,71.546211 117.392143,66.740517 97.267792,65.515656 
	C98.275871,62.292488 99.636002,59.468788 100.996124,56.645088 
	C115.884247,56.157845 130.527420,57.883629 144.813248,62.050083 
	C186.214264,74.124664 220.157440,96.715134 243.797089,133.378967 
	C248.723373,141.019379 252.617645,149.325211 257.186188,157.688034 
	C254.301743,158.552917 251.128845,159.673965 247.873657,160.449524 
	C236.782501,163.092010 229.846497,170.223984 224.991364,180.251282 
	C218.467529,193.724884 211.655304,196.943665 196.746643,194.099411 
	C187.468430,192.329330 179.045471,193.770966 170.972290,198.792969 
	C163.066315,203.710953 154.808670,208.061523 146.734573,212.711807 
	C135.051620,219.440628 132.808121,227.852890 139.559860,239.382309 
	C141.825287,243.250778 144.527466,246.942291 146.206100,251.051285 
	C147.616226,254.502960 148.778717,259.312317 144.389893,261.229584 
	C139.795456,263.236664 137.850784,258.577576 135.949448,255.410767 
	C134.865265,253.604919 134.510712,251.360886 133.828568,249.313843 
	C130.424469,239.098404 119.403854,233.373398 109.430550,236.758408 
	C103.211220,238.869308 99.486755,243.044647 98.832741,249.834702 
	C97.560677,263.041290 96.197258,263.991211 83.744087,259.654907 
	C77.090385,257.338043 71.239983,257.962616 65.324799,261.925049 
	C57.588959,267.107086 49.692478,272.120300 41.482533,276.486816 
	C38.433044,278.108704 34.302418,277.697784 30.192900,277.968384 
	C29.562605,277.520355 29.357821,277.446106 29.106625,277.500122 
	C28.929907,277.396210 28.753187,277.292328 28.243450,276.911316 
	C27.910435,276.634186 27.816238,276.278870 27.793568,275.890076 
	C27.160995,272.676910 26.551092,269.852600 26.334023,267.155762 
	C31.083715,266.995636 35.668228,267.459320 39.738514,266.225952 
	C44.579990,264.758911 49.245899,262.244659 53.525101,259.470337 
	C72.571442,247.122040 91.458862,234.528381 110.368698,221.970688 
	C111.106186,221.480942 111.485786,220.452271 112.032150,219.674728 
	C117.891068,216.501450 123.785667,213.391602 129.591858,210.124634 
	C132.020340,208.758224 134.261124,207.058212 137.184998,205.292252 
	C139.754166,204.313950 141.885193,203.820358 143.672791,202.752106 
	C166.748810,188.962006 189.929352,175.382019 214.636627,164.621033 
	C219.173737,162.644928 223.534775,160.264587 227.977097,158.070847 
	C233.588425,150.663544 233.572784,148.577438 228.236801,140.379990 
	C214.623398,119.466324 196.483551,103.332970 175.432526,90.270027 
	C174.805817,89.881134 173.927414,89.897850 172.718414,89.741264 
	C169.122726,83.319847 163.451263,81.799576 156.950989,81.894043 
z"/>
<path fill="#C3704E" opacity="1.000000" stroke="none" 
	d="
M293.103333,140.158417 
	C293.181885,140.573654 293.260437,140.988892 293.412964,141.712723 
	C290.891846,154.481262 281.995789,161.360107 269.390839,159.949219 
	C261.858826,159.106171 257.535278,153.631851 254.706055,147.151306 
	C247.679474,131.056458 237.442657,117.126381 225.081894,104.940361 
	C204.278534,84.431061 179.817429,69.731369 151.818985,60.951843 
	C135.665924,55.886692 119.133682,53.740326 102.316238,53.119556 
	C100.688560,53.059479 99.070442,52.740860 97.209076,51.774101 
	C97.930885,47.346588 98.891502,43.687237 99.903877,40.399590 
	C101.842941,42.501259 103.648354,45.607819 105.631531,45.725773 
	C114.812065,46.271824 124.099518,45.357395 133.236801,46.191536 
	C141.185867,46.917206 148.985260,49.282520 156.926941,51.288818 
	C161.236252,53.386826 165.484802,55.082741 169.699554,56.858864 
	C180.822510,61.546150 191.930786,66.268234 203.024307,70.990265 
	C203.003708,71.004074 203.010986,70.955017 203.100555,71.235695 
	C203.539017,71.687187 203.887894,71.858002 204.515350,72.195175 
	C209.632736,76.008858 214.471558,79.656197 219.316467,83.611824 
	C224.170334,88.560646 229.018066,93.201180 234.022247,98.152840 
	C238.078812,103.560875 242.444260,108.373352 245.773224,113.819389 
	C251.166168,122.641968 255.878799,131.880402 260.939850,141.317322 
	C261.314514,142.901978 261.627991,144.112579 261.941498,145.323166 
	C264.001587,133.983170 269.185547,128.425186 279.074554,128.088608 
	C283.228699,130.907410 287.155273,133.434082 291.048218,135.984665 
	C291.014587,136.008575 291.062317,135.941589 291.024597,136.327225 
	C291.692352,137.861374 292.397858,139.009903 293.103333,140.158417 
z"/>
<path fill="#E83B47" opacity="1.000000" stroke="none" 
	d="
M90.148483,81.992630 
	C92.399269,83.768547 94.650047,85.544464 96.708214,87.834000 
	C96.019165,89.226372 95.522736,90.105118 94.879669,90.691986 
	C93.586128,89.169289 92.439232,87.938477 91.157761,86.507843 
	C90.815002,86.050690 90.554985,85.866524 90.133972,85.577606 
	C89.798630,85.451332 89.572449,85.502983 89.346268,85.554626 
	C89.528030,85.743042 89.709793,85.931465 89.992676,86.338005 
	C90.285698,86.826523 90.536049,87.022102 90.942444,87.495766 
	C94.494720,93.093201 95.199089,98.909088 92.867142,104.512634 
	C90.218651,110.876823 87.254013,117.300415 83.264984,122.865372 
	C78.711716,129.217484 72.839653,134.591156 63.816090,135.102783 
	C61.644028,134.706955 59.872627,134.339539 58.062210,133.606384 
	C57.970695,132.508240 57.918201,131.775803 57.865707,131.043381 
	C57.925667,130.294968 57.985622,129.546555 58.354786,128.216202 
	C58.729397,126.764099 58.794800,125.893936 58.860210,125.023766 
	C59.150669,124.222633 59.441120,123.421501 59.817474,122.060349 
	C59.903378,121.500328 59.839706,121.017403 59.839706,121.017403 
	C59.906128,120.580917 59.972549,120.144440 60.334679,119.209938 
	C60.707268,118.147697 60.784153,117.583473 60.861038,117.019249 
	C61.167095,116.530899 61.473145,116.042549 61.842270,115.026520 
	C61.905342,114.498833 61.836987,114.018356 61.836987,114.018356 
	C61.887836,113.857277 61.938686,113.696205 62.307137,113.123489 
	C62.691063,112.145027 62.757385,111.578194 62.823708,111.011368 
	C62.823708,111.011368 62.968140,111.002670 63.402813,111.032425 
	C70.775703,108.800522 71.919044,106.142097 70.132477,96.534615 
	C70.905655,95.191269 71.516273,94.116737 72.126884,93.042213 
	C72.435333,92.945557 72.669701,92.756897 73.074539,92.176552 
	C73.582359,91.743774 73.781082,91.545876 74.181221,91.127464 
	C74.625534,90.626404 74.803864,90.281044 74.982193,89.935692 
	C74.982193,89.935692 74.998428,89.996956 75.293106,89.890274 
	C75.714684,89.174370 75.841576,88.565132 75.968460,87.955902 
	C75.968460,87.955902 75.999695,87.999863 76.298828,88.034317 
	C76.721687,87.695908 76.845413,87.323029 76.969147,86.950157 
	C76.969147,86.950157 76.996277,87.002068 77.329826,87.083878 
	C78.428261,86.095078 79.193146,85.024483 79.958031,83.953888 
	C79.958031,83.953888 80.000000,83.999084 80.374832,84.125153 
	C83.882599,83.498360 87.015541,82.745491 90.148483,81.992630 
z"/>
<path fill="#F4D8C3" opacity="1.000000" stroke="none" 
	d="
M104.797432,29.238073 
	C109.556755,26.094625 114.249634,24.189095 119.937531,24.534348 
	C193.587402,29.004906 248.670395,64.580757 288.722382,125.234734 
	C291.009247,128.697952 291.702728,133.213364 292.819153,137.492157 
	C292.021118,137.144028 291.541718,136.542801 291.062317,135.941589 
	C291.062317,135.941589 291.014587,136.008575 291.070618,135.607727 
	C290.830261,134.260956 290.695190,133.222626 290.213928,132.382675 
	C278.850922,112.551643 264.268036,95.379372 247.042297,80.424080 
	C246.137436,79.638512 244.695908,79.242928 243.456207,79.108498 
	C235.821335,78.280563 233.147522,76.188332 231.004379,69.104485 
	C229.950989,65.622650 220.706421,59.284229 217.117218,59.363560 
	C206.653030,59.594841 197.418610,55.515167 191.161621,47.769192 
	C187.114853,42.759399 182.541656,40.404366 177.111115,38.541798 
	C171.923645,36.762600 166.742920,34.698544 161.383881,33.734760 
	C145.706299,30.915258 130.605270,24.697372 113.762032,29.518930 
	C107.245506,31.384356 103.269012,34.009327 99.650917,38.909164 
	C98.986816,38.536732 98.554832,38.272308 98.122849,38.007885 
	C100.284348,35.176380 102.445854,32.344872 104.797432,29.238073 
z"/>
<path fill="#D09234" opacity="1.000000" stroke="none" 
	d="
M103.705185,102.259811 
	C106.796501,108.443810 104.518341,114.544312 101.692429,120.009079 
	C93.465614,135.918091 80.820007,146.819199 63.205074,151.348251 
	C61.553810,151.772827 59.687798,151.362183 57.486656,150.865891 
	C57.027897,150.181122 57.003975,149.969788 56.953594,149.461639 
	C56.903065,148.768784 56.879002,148.372757 56.854939,147.976715 
	C56.854939,147.976715 56.966309,147.504791 57.237877,147.096573 
	C58.008808,145.755905 58.508171,144.823456 59.007530,143.891006 
	C70.129219,145.666229 78.804398,140.988235 86.148018,133.281647 
	C94.495041,124.522041 101.584816,114.972771 103.705185,102.259811 
z"/>
<path fill="#73214B" opacity="1.000000" stroke="none" 
	d="
M111.656876,219.737808 
	C111.485786,220.452271 111.106186,221.480942 110.368698,221.970688 
	C91.458862,234.528381 72.571442,247.122040 53.525101,259.470337 
	C49.245899,262.244659 44.579990,264.758911 39.738514,266.225952 
	C35.668228,267.459320 31.083715,266.995636 26.266132,266.975037 
	C25.696293,266.434753 25.570213,266.212341 25.427172,265.999542 
	C25.543537,265.476410 25.659901,264.953278 26.015955,263.727936 
	C26.255644,263.025726 26.358240,262.751038 26.358240,262.751038 
	C29.107243,266.108246 32.788074,265.687439 35.924992,264.192291 
	C44.136181,260.278656 52.385178,256.317230 60.125626,251.570190 
	C74.983749,242.458084 89.480949,232.758698 104.179718,223.384216 
	C106.404045,221.965607 108.907333,220.984406 111.656876,219.737808 
z"/>
<path fill="#BF2F49" opacity="1.000000" stroke="none" 
	d="
M95.026306,90.983856 
	C95.522736,90.105118 96.019165,89.226372 96.775780,88.170792 
	C101.823509,93.456841 101.244270,100.405739 99.474159,106.041039 
	C94.979362,120.350594 86.709473,132.407913 72.586189,139.060806 
	C69.302467,140.607635 65.208160,140.700562 61.463509,140.841095 
	C60.325169,140.883804 59.108681,138.844116 57.926491,136.980331 
	C57.983746,135.459030 58.042488,134.715561 58.101231,133.972107 
	C59.872627,134.339539 61.644028,134.706955 64.051483,135.385834 
	C66.800087,135.617126 69.086586,136.038788 70.997360,135.376465 
	C84.850105,130.574783 100.717804,108.747475 95.026306,90.983856 
z"/>
<path fill="#FAEDCC" opacity="1.000000" stroke="none" 
	d="
M56.980057,149.758453 
	C57.003975,149.969788 57.027897,150.181122 57.157104,150.693939 
	C57.774521,153.401657 57.778049,156.083771 58.903011,158.157578 
	C61.363831,162.693970 59.954945,168.896957 53.958141,172.031738 
	C49.314739,174.459045 47.741371,178.026474 46.454575,183.102249 
	C45.452209,183.833801 44.716347,183.923828 43.980484,184.013840 
	C46.572887,175.914474 49.165291,167.815125 51.778713,159.350555 
	C51.880108,158.834625 51.960484,158.683868 52.253693,158.076294 
	C52.603119,157.076736 52.739712,156.533997 52.876312,155.991257 
	C53.849800,154.206604 54.823288,152.421936 56.118446,150.244995 
	C56.620098,149.821304 56.800076,149.789886 56.980057,149.758453 
z"/>
<path fill="#F7E9C7" opacity="1.000000" stroke="none" 
	d="
M26.442896,262.411987 
	C26.358240,262.751038 26.255644,263.025726 26.138210,262.933411 
	C25.703634,262.072876 25.386496,261.304657 24.982788,259.843567 
	C24.821335,257.427673 24.746449,255.704636 24.671566,253.981598 
	C24.870441,252.944046 25.069315,251.906479 25.271372,250.471649 
	C25.466236,249.563919 25.657917,249.053482 25.812803,248.264374 
	C26.221012,245.932236 26.666014,243.878738 27.279186,241.213226 
	C27.525578,240.061050 27.603796,239.520889 27.682018,238.980743 
	C28.167786,236.931747 28.653553,234.882736 29.329891,232.231567 
	C29.602234,231.081116 29.684008,230.532852 29.765781,229.984589 
	C29.765783,229.984589 29.973145,229.583786 30.275427,229.267410 
	C30.703636,228.630081 30.829563,228.309113 31.218199,227.917664 
	C31.656446,227.801697 31.831987,227.756226 32.006588,228.124176 
	C32.169521,229.598099 32.333393,230.658600 32.497269,231.719086 
	C30.507362,241.837021 28.517458,251.954971 26.442896,262.411987 
z"/>
<path fill="#F2A9AE" opacity="1.000000" stroke="none" 
	d="
M69.969910,96.803436 
	C71.919044,106.142097 70.775703,108.800522 63.469658,111.060089 
	C65.041252,106.639839 66.980675,102.221680 69.208282,97.363831 
	C69.496468,96.924141 69.969910,96.803436 69.969910,96.803436 
z"/>
<path fill="#F4E4C2" opacity="1.000000" stroke="none" 
	d="
M95.896339,66.008430 
	C94.045090,69.663010 92.193832,73.317589 90.122940,77.279221 
	C89.504097,76.598198 88.503738,75.335388 88.808319,74.668945 
	C90.231705,71.554382 92.014984,68.604294 94.131393,65.453491 
	C95.027550,65.543854 95.461945,65.776138 95.896339,66.008430 
z"/>
<path fill="#C49498" opacity="1.000000" stroke="none" 
	d="
M97.803177,38.190350 
	C98.554832,38.272308 98.986816,38.536732 99.662292,39.162216 
	C99.887886,39.691475 99.869995,39.859680 99.852112,40.027882 
	C98.891502,43.687237 97.930885,47.346588 96.966660,51.421215 
	C93.143417,47.194229 95.457901,42.789104 97.803177,38.190350 
z"/>
<path fill="#C69F9A" opacity="1.000000" stroke="none" 
	d="
M25.111328,265.766846 
	C25.570213,266.212341 25.696293,266.434753 25.873299,266.847534 
	C26.551092,269.852600 27.160995,272.676910 27.599585,275.842773 
	C27.428272,276.184265 27.028723,276.179596 27.028721,276.179596 
	C25.663866,272.994171 24.280355,269.816071 23.017986,266.590546 
	C22.977186,266.486267 24.175043,265.897247 25.111328,265.766846 
z"/>
<path fill="#CBA6A0" opacity="1.000000" stroke="none" 
	d="
M96.096649,65.955002 
	C95.461945,65.776138 95.027550,65.543854 94.368393,65.210464 
	C96.207939,62.213108 98.272247,59.316856 100.666336,56.532845 
	C99.636002,59.468788 98.275871,62.292488 96.803993,65.446327 
	C96.692238,65.776466 96.296951,65.901581 96.096649,65.955002 
z"/>
<path fill="#F0AAB0" opacity="1.000000" stroke="none" 
	d="
M89.975853,81.661942 
	C87.015541,82.745491 83.882599,83.498360 80.353821,84.103661 
	C82.506187,80.329742 85.552361,78.571228 89.975853,81.661942 
z"/>
<path fill="#752657" opacity="1.000000" stroke="none" 
	d="
M24.335655,254.088348 
	C24.746449,255.704636 24.821335,257.427673 24.869102,259.581421 
	C21.715359,258.485168 22.812849,256.346619 24.335655,254.088348 
z"/>
<path fill="#752657" opacity="1.000000" stroke="none" 
	d="
M58.799713,143.664932 
	C58.508171,144.823456 58.008808,145.755905 57.238976,146.854126 
	C55.339596,144.842484 55.721970,143.576828 58.799713,143.664932 
z"/>
<path fill="#752657" opacity="1.000000" stroke="none" 
	d="
M70.132477,96.534615 
	C69.969910,96.803436 69.496468,96.924141 69.272163,97.020996 
	C69.825668,95.776833 70.603485,94.435822 71.754089,93.068512 
	C71.516273,94.116737 70.905655,95.191269 70.132477,96.534615 
z"/>
<path fill="#F0AAB0" opacity="1.000000" stroke="none" 
	d="
M79.619247,83.929626 
	C79.193146,85.024483 78.428261,86.095078 77.307724,87.064453 
	C77.728195,85.943947 78.504326,84.924660 79.619247,83.929626 
z"/>
<path fill="#752657" opacity="1.000000" stroke="none" 
	d="
M58.062210,133.606384 
	C58.042488,134.715561 57.983746,135.459030 57.879959,136.570831 
	C57.679794,135.142776 57.524673,133.346359 57.617630,131.296661 
	C57.918201,131.775803 57.970695,132.508240 58.062210,133.606384 
z"/>
<path fill="#752657" opacity="1.000000" stroke="none" 
	d="
M58.599297,125.166985 
	C58.794800,125.893936 58.729397,126.764099 58.409870,127.844650 
	C58.216629,127.140091 58.277508,126.225151 58.599297,125.166985 
z"/>
<path fill="#752657" opacity="1.000000" stroke="none" 
	d="
M56.953594,149.461639 
	C56.800076,149.789886 56.620098,149.821304 56.172009,149.909576 
	C56.036884,149.332291 56.169865,148.698151 56.578892,148.020355 
	C56.879002,148.372757 56.903065,148.768784 56.953594,149.461639 
z"/>
<path fill="#752657" opacity="1.000000" stroke="none" 
	d="
M52.591789,156.032272 
	C52.739712,156.533997 52.603119,157.076736 52.263245,157.820221 
	C52.142395,157.371750 52.224831,156.722519 52.591789,156.032272 
z"/>
<path fill="#752657" opacity="1.000000" stroke="none" 
	d="
M62.540344,111.051086 
	C62.757385,111.578194 62.691063,112.145027 62.385807,112.882645 
	C62.183578,112.399223 62.220284,111.745018 62.540344,111.051086 
z"/>
<path fill="#752657" opacity="1.000000" stroke="none" 
	d="
M73.915237,91.283165 
	C73.781082,91.545876 73.582359,91.743774 73.117874,91.950775 
	C72.506172,91.850922 72.095665,91.677177 71.685165,91.503433 
	C71.939560,91.348289 72.193954,91.193138 72.936440,91.093178 
	C73.588097,91.193298 73.751663,91.238235 73.915237,91.283165 
z"/>
<path fill="#752657" opacity="1.000000" stroke="none" 
	d="
M60.636803,117.132263 
	C60.784153,117.583473 60.707268,118.147697 60.393932,118.883919 
	C60.242512,118.452370 60.327538,117.848824 60.636803,117.132263 
z"/>
<path fill="#F0AAB0" opacity="1.000000" stroke="none" 
	d="
M75.633095,88.059067 
	C75.841576,88.565132 75.714684,89.174370 75.261627,89.886658 
	C75.056213,89.380554 75.176971,88.771400 75.633095,88.059067 
z"/>
<path fill="#F0AAB0" opacity="1.000000" stroke="none" 
	d="
M74.181221,91.127464 
	C73.751663,91.238235 73.588097,91.193298 73.179230,91.080688 
	C73.408325,90.543648 73.882736,90.074287 74.669662,89.770309 
	C74.803864,90.281044 74.625534,90.626404 74.181221,91.127464 
z"/>
<path fill="#F0AAB0" opacity="1.000000" stroke="none" 
	d="
M76.672134,86.948196 
	C76.845413,87.323029 76.721687,87.695908 76.273773,88.024368 
	C76.091423,87.635376 76.233269,87.290802 76.672134,86.948196 
z"/>
<path fill="#752657" opacity="1.000000" stroke="none" 
	d="
M59.698368,121.109955 
	C59.839706,121.017403 59.903378,121.500328 59.875328,121.742172 
	C59.750526,121.723518 59.653778,121.463020 59.698368,121.109955 
z"/>
<path fill="#752657" opacity="1.000000" stroke="none" 
	d="
M61.696819,114.111984 
	C61.836987,114.018356 61.905342,114.498833 61.879543,114.739990 
	C61.754715,114.722641 61.655682,114.464127 61.696819,114.111984 
z"/>
<path fill="#752657" opacity="1.000000" stroke="none" 
	d="
M27.137157,276.369537 
	C27.028723,276.179596 27.428272,276.184265 27.622255,276.231567 
	C27.816238,276.278870 27.910435,276.634186 27.952076,276.813049 
	C27.694471,276.933960 27.445097,276.789825 27.137157,276.369537 
z"/>
<path fill="#752657" opacity="1.000000" stroke="none" 
	d="
M29.212280,277.619446 
	C29.357821,277.446106 29.562605,277.520355 29.805632,277.874268 
	C29.678919,277.971039 29.488136,277.875366 29.212280,277.619446 
z"/>
<path fill="#EA984F" opacity="1.000000" stroke="none" 
	d="
M291.024597,136.327209 
	C291.541718,136.542801 292.021118,137.144028 292.753845,137.902176 
	C293.059631,138.523346 293.112061,138.987610 293.133911,139.805145 
	C292.397858,139.009903 291.692352,137.861374 291.024597,136.327209 
z"/>
<path fill="#721E4D" opacity="1.000000" stroke="none" 
	d="
M43.989082,183.993561 
	C44.716347,183.923828 45.452209,183.833801 46.399368,183.504364 
	C49.538044,182.162186 52.386955,180.726944 55.406418,180.014297 
	C68.403572,176.946732 78.555466,186.881149 75.878700,199.946228 
	C75.450066,202.038376 74.660118,204.056488 73.659355,206.655823 
	C68.608650,214.943283 62.997837,221.860535 54.933014,226.245361 
	C48.150543,229.932983 41.110992,231.984558 33.783875,226.483017 
	C32.687347,226.176620 31.842667,226.069336 30.997990,225.962067 
	C31.487623,224.447418 31.977257,222.932785 33.010349,221.402679 
	C37.065720,226.221542 41.423992,227.750702 46.935192,226.168320 
	C58.328106,222.897186 65.107040,214.465347 70.978104,204.510284 
	C71.426369,203.392899 71.789169,202.646851 72.076797,201.872879 
	C76.046814,191.190277 69.499069,181.742798 58.271683,183.114532 
	C53.360542,183.714554 48.786148,187.070816 44.058838,189.175476 
	C43.722301,188.376465 43.385761,187.577469 42.991394,186.460602 
	C42.933563,186.142746 43.027737,186.014343 43.361687,185.786331 
	C43.810768,185.034134 43.925903,184.509964 44.041031,183.985779 
	C44.041031,183.985779 43.997681,183.973267 43.989082,183.993561 
z"/>
<path fill="#BF2F49" opacity="1.000000" stroke="none" 
	d="
M70.857681,204.868607 
	C65.107040,214.465347 58.328106,222.897186 46.935192,226.168320 
	C41.423992,227.750702 37.065720,226.221542 33.274052,221.190796 
	C32.971939,220.543625 32.949581,220.092865 32.959633,219.308258 
	C32.992039,218.974396 33.160690,219.011734 33.520409,219.048477 
	C36.002918,219.802689 38.125706,220.520172 40.288803,221.596954 
	C43.417175,221.880508 46.803825,222.605225 49.539497,221.584778 
	C59.265522,217.956772 64.854095,210.061371 69.291321,201.202759 
	C69.980949,202.562073 70.419319,203.715347 70.857681,204.868607 
z"/>
<path fill="#EDA5AC" opacity="1.000000" stroke="none" 
	d="
M36.933662,195.354919 
	C38.165562,194.346481 39.253521,193.639130 40.677704,193.239532 
	C36.370392,200.730362 32.761688,208.269791 32.611942,217.059082 
	C31.972486,216.839783 31.624008,216.662018 31.275532,216.484238 
	C31.265493,214.293686 31.255453,212.103119 31.405052,209.272003 
	C31.621208,208.081833 31.677725,207.532211 31.734241,206.982605 
	C33.419403,203.207077 35.104565,199.431534 36.933662,195.354919 
z"/>
<path fill="#752657" opacity="1.000000" stroke="none" 
	d="
M30.735596,225.988922 
	C31.842667,226.069336 32.687347,226.176620 33.475761,226.506607 
	C32.948841,227.056458 32.478180,227.383606 32.007523,227.710754 
	C31.831987,227.756226 31.656446,227.801697 30.979786,227.925110 
	C30.478666,228.003052 29.999657,228.003204 29.999657,228.003204 
	C30.157507,227.340729 30.315355,226.678253 30.735596,225.988922 
z"/>
<path fill="#752657" opacity="1.000000" stroke="none" 
	d="
M31.146046,216.787460 
	C31.624008,216.662018 31.972486,216.839783 32.635532,217.379288 
	C33.020294,218.164581 33.090492,218.588165 33.160690,219.011734 
	C33.160690,219.011734 32.992039,218.974396 32.904312,218.974274 
	C32.216576,218.346329 31.616570,217.718506 31.146046,216.787460 
z"/>
<path fill="#752657" opacity="1.000000" stroke="none" 
	d="
M31.452843,207.038788 
	C31.677725,207.532211 31.621208,208.081833 31.397564,208.856155 
	C31.210770,208.418900 31.191107,207.756943 31.452843,207.038788 
z"/>
<path fill="#752657" opacity="1.000000" stroke="none" 
	d="
M29.485338,230.035004 
	C29.684008,230.532852 29.602234,231.081116 29.333252,231.840057 
	C29.165659,231.395645 29.185278,230.740524 29.485338,230.035004 
z"/>
<path fill="#752657" opacity="1.000000" stroke="none" 
	d="
M27.410488,239.034256 
	C27.603796,239.520889 27.525578,240.061050 27.272797,240.817505 
	C27.111809,240.385117 27.125383,239.736450 27.410488,239.034256 
z"/>
<path fill="#721E4D" opacity="1.000000" stroke="none" 
	d="
M30.004524,228.287964 
	C29.999657,228.003204 30.478666,228.003052 30.717079,227.995605 
	C30.829563,228.309113 30.703636,228.630081 30.317249,229.045700 
	C30.040989,228.951141 30.025190,228.761932 30.004524,228.287964 
z"/>
<path fill="#FAEDCC" opacity="1.000000" stroke="none" 
	d="
M43.716156,183.986862 
	C43.925903,184.509964 43.810768,185.034134 43.394188,185.713654 
	C43.192253,185.241959 43.291763,184.614960 43.716156,183.986862 
z"/>
<path fill="#E73B47" opacity="1.000000" stroke="none" 
	d="
M33.520409,219.048477 
	C33.090492,218.588165 33.020294,218.164581 32.926510,217.420807 
	C32.761688,208.269791 36.370392,200.730362 41.008247,193.178009 
	C41.925213,191.771149 42.847858,190.733566 43.914673,189.435730 
	C48.786148,187.070816 53.360542,183.714554 58.271683,183.114532 
	C69.499069,181.742798 76.046814,191.190277 72.076797,201.872879 
	C71.789169,202.646851 71.426369,203.392899 70.978104,204.510284 
	C70.419319,203.715347 69.980949,202.562073 69.296295,200.747650 
	C68.726379,195.960983 70.565269,191.246674 65.575920,187.353271 
	C70.046204,203.343658 56.546597,220.704971 40.248489,221.237656 
	C38.125706,220.520172 36.002918,219.802689 33.520409,219.048477 
z"/>
<path fill="#73204E" opacity="1.000000" stroke="none" 
	d="
M227.574127,157.979279 
	C223.534775,160.264587 219.173737,162.644928 214.636627,164.621033 
	C189.929352,175.382019 166.748810,188.962006 143.672791,202.752106 
	C141.885193,203.820358 139.754166,204.313950 137.395401,205.031448 
	C137.318054,204.561600 137.628067,204.134918 138.443756,203.389496 
	C141.491226,201.333817 144.033051,199.596863 147.123383,197.485077 
	C136.380890,194.984573 126.123230,193.120270 123.448814,180.830750 
	C123.809792,174.030167 126.670265,168.291702 131.212433,163.404205 
	C142.998627,150.721924 157.445770,143.038559 174.746063,141.381714 
	C192.196167,139.710495 202.144547,147.489670 205.443207,164.697952 
	C212.678360,162.430222 219.924774,160.158951 227.574127,157.979279 
M191.764587,147.403198 
	C190.851456,147.250839 189.938324,147.098480 188.993546,146.992569 
	C188.993546,146.992569 189.037033,146.958984 188.750656,146.254944 
	C187.817261,145.915970 186.907242,145.476685 185.947021,145.252884 
	C167.657959,140.990265 138.504410,154.156784 129.691757,170.684082 
	C129.491348,171.059937 129.838470,171.727753 129.889847,172.575684 
	C129.889847,172.575684 129.850540,172.892136 129.317703,173.375580 
	C126.472534,176.998154 125.955055,180.984070 128.106964,185.004059 
	C131.969772,192.220200 148.279877,196.170990 155.360687,192.194427 
	C169.412033,184.303207 183.563660,176.579346 197.851822,169.127563 
	C202.289276,166.813263 202.978928,164.083344 200.960693,159.245132 
	C200.599304,154.069748 196.825043,151.520691 192.965088,148.502548 
	C192.849701,148.167282 192.616516,147.974716 191.764587,147.403198 
z"/>
<path fill="#731F4D" opacity="1.000000" stroke="none" 
	d="
M156.534439,81.930130 
	C163.451263,81.799576 169.122726,83.319847 172.522064,89.982407 
	C175.609787,98.280106 171.224258,103.885498 165.728775,109.632301 
	C157.777374,113.824173 150.592682,118.282318 142.856949,121.351700 
	C135.418472,124.303139 127.904716,123.534836 122.030373,116.994194 
	C119.902382,110.740341 121.571861,105.124626 125.298447,100.095917 
	C132.979370,89.731201 143.130981,83.395638 156.534439,81.930130 
M128.388840,101.083534 
	C128.246353,101.794968 128.103867,102.506409 127.864548,103.973427 
	C125.809341,110.121796 127.698540,113.093483 133.897491,113.088554 
	C143.184647,113.081161 150.748245,108.580917 158.066956,103.509865 
	C160.331497,101.940788 162.667435,100.474709 164.947769,99.661041 
	C159.017197,104.048630 153.515854,109.270508 147.041641,112.601402 
	C139.814270,116.319778 131.672943,119.202354 124.126015,111.376495 
	C125.620834,117.354660 129.975479,120.611740 135.668579,119.757164 
	C148.408081,117.844849 159.530579,112.497841 167.779022,102.397705 
	C169.445923,100.356628 169.301407,96.836220 169.981796,93.267548 
	C168.653488,91.481758 167.325180,89.695969 165.823502,87.198967 
	C164.184021,86.498840 162.603134,85.430367 160.895493,85.158798 
	C150.395020,83.488922 134.486710,91.446701 128.999207,101.000710 
	C128.999207,101.000710 128.967026,100.959076 128.388840,101.083534 
z"/>
<path fill="#CF9134" opacity="1.000000" stroke="none" 
	d="
M32.006584,228.124176 
	C32.478180,227.383606 32.948841,227.056458 33.727615,226.705734 
	C41.110992,231.984558 48.150543,229.932983 54.933014,226.245361 
	C62.997837,221.860535 68.608650,214.943283 73.565941,207.020081 
	C72.696465,210.196182 72.283623,214.113663 70.250916,216.809982 
	C63.929062,225.195831 55.800007,231.615768 45.232662,233.494904 
	C41.437538,234.169754 37.224960,232.497055 32.850082,231.807404 
	C32.333393,230.658600 32.169521,229.598099 32.006584,228.124176 
z"/>
<path fill="#CF9133" opacity="1.000000" stroke="none" 
	d="
M121.755424,117.200356 
	C127.904716,123.534836 135.418472,124.303139 142.856949,121.351700 
	C150.592682,118.282318 157.777374,113.824173 165.540314,109.906082 
	C163.081177,112.654129 160.634995,115.980721 157.419022,118.183342 
	C149.549545,123.573166 141.055771,127.615486 131.086823,126.979057 
	C124.937447,126.586479 121.870186,123.548630 121.755424,117.200356 
z"/>
<path fill="#CF9033" opacity="1.000000" stroke="none" 
	d="
M123.126381,181.010986 
	C126.123230,193.120270 136.380890,194.984573 147.123383,197.485077 
	C144.033051,199.596863 141.491226,201.333817 138.629791,203.176575 
	C135.351669,201.260941 132.531982,198.986664 129.406052,197.270142 
	C122.686707,193.580429 120.615913,188.848938 123.126381,181.010986 
z"/>
<path fill="#F9B534" opacity="1.000000" stroke="none" 
	d="
M126.121078,88.277039 
	C125.098160,88.887642 124.329582,89.623138 123.644157,89.552437 
	C122.189697,89.402405 120.778549,88.832489 119.349648,88.434723 
	C119.755424,87.294052 119.908936,85.394554 120.615791,85.159561 
	C122.494537,84.534973 124.611931,84.628242 126.634415,84.436012 
	C126.560631,85.636223 126.486862,86.836426 126.121078,88.277039 
z"/>
<path fill="#F9B435" opacity="1.000000" stroke="none" 
	d="
M123.208946,139.977493 
	C119.874863,138.837082 121.311256,137.333237 122.550537,135.986252 
	C124.739815,133.606689 127.111618,133.059128 130.846313,136.514832 
	C128.028976,137.866989 125.810913,138.931534 123.208946,139.977493 
z"/>
<path fill="#F9B435" opacity="1.000000" stroke="none" 
	d="
M189.668304,119.904602 
	C187.654266,123.579941 185.204483,125.424332 181.366531,122.749977 
	C183.596710,117.576462 185.367416,116.922752 189.668304,119.904602 
z"/>
<path fill="#F9B335" opacity="1.000000" stroke="none" 
	d="
M44.627945,242.154572 
	C44.937229,243.659454 45.396873,245.603378 44.654812,246.345184 
	C43.659992,247.339661 41.638874,247.913162 40.251293,247.650040 
	C39.571720,247.521179 39.327625,245.095688 38.886429,243.709625 
	C40.671997,243.159180 42.457573,242.608719 44.627945,242.154572 
z"/>
<path fill="#F9B335" opacity="1.000000" stroke="none" 
	d="
M100.399887,211.716187 
	C98.715363,211.281296 97.404022,210.710358 96.092674,210.139420 
	C97.357979,208.816818 98.425453,207.091965 99.968086,206.333237 
	C100.798615,205.924759 102.443596,207.172211 103.721092,207.672501 
	C102.738419,208.975037 101.755745,210.277573 100.399887,211.716187 
z"/>
<path fill="#F9B335" opacity="1.000000" stroke="none" 
	d="
M91.947586,176.709473 
	C94.101143,176.955231 95.941833,177.432510 97.782532,177.909790 
	C96.563553,179.216064 95.529312,180.844635 94.048225,181.693634 
	C93.299232,182.122971 90.888008,181.358170 90.735336,180.753052 
	C90.451866,179.629517 91.273323,178.227203 91.947586,176.709473 
z"/>
<path fill="#EA984F" opacity="1.000000" stroke="none" 
	d="
M99.903877,40.399590 
	C99.869995,39.859680 99.887886,39.691475 99.894409,39.270226 
	C103.269012,34.009327 107.245506,31.384356 113.762032,29.518930 
	C130.605270,24.697372 145.706299,30.915258 161.383881,33.734760 
	C166.742920,34.698544 171.923645,36.762600 177.111115,38.541798 
	C182.541656,40.404366 187.114853,42.759399 191.161621,47.769192 
	C197.418610,55.515167 206.653030,59.594841 217.117218,59.363560 
	C220.706421,59.284229 229.950989,65.622650 231.004379,69.104485 
	C233.147522,76.188332 235.821335,78.280563 243.456207,79.108498 
	C244.695908,79.242928 246.137436,79.638512 247.042297,80.424080 
	C264.268036,95.379372 278.850922,112.551643 290.213928,132.382675 
	C290.695190,133.222626 290.830261,134.260956 291.104218,135.583801 
	C287.155273,133.434082 283.228699,130.907410 279.427094,128.059738 
	C280.254486,127.302101 280.956940,126.865471 281.946564,126.250359 
	C271.275543,122.587715 261.931793,129.348328 260.878693,140.943237 
	C255.878799,131.880402 251.166168,122.641968 245.773224,113.819389 
	C242.444260,108.373352 238.078812,103.560875 233.995422,97.822800 
	C230.127838,91.354324 226.341354,85.633781 219.310364,83.303535 
	C214.471558,79.656197 209.632736,76.008858 204.430664,71.890434 
	C203.715271,71.264572 203.363129,71.109795 203.010986,70.955017 
	C203.010986,70.955017 203.003708,71.004074 203.054413,70.640594 
	C189.510681,59.467361 173.813141,53.683918 156.850784,50.923279 
	C148.985260,49.282520 141.185867,46.917206 133.236801,46.191536 
	C124.099518,45.357395 114.812065,46.271824 105.631531,45.725773 
	C103.648354,45.607819 101.842941,42.501259 99.903877,40.399590 
z"/>
<path fill="#73204E" opacity="1.000000" stroke="none" 
	d="
M156.926941,51.288818 
	C173.813141,53.683918 189.510681,59.467361 203.075012,70.626785 
	C191.930786,66.268234 180.822510,61.546150 169.699554,56.858864 
	C165.484802,55.082741 161.236252,53.386826 156.926941,51.288818 
z"/>
<path fill="#73204E" opacity="1.000000" stroke="none" 
	d="
M260.939850,141.317322 
	C261.931793,129.348328 271.275543,122.587715 281.946564,126.250359 
	C280.956940,126.865471 280.254486,127.302101 279.199493,127.767601 
	C269.185547,128.425186 264.001587,133.983170 261.941498,145.323166 
	C261.627991,144.112579 261.314514,142.901978 260.939850,141.317322 
z"/>
<path fill="#74214E" opacity="1.000000" stroke="none" 
	d="
M219.316467,83.611824 
	C226.341354,85.633781 230.127838,91.354324 233.838974,97.511673 
	C229.018066,93.201180 224.170334,88.560646 219.316467,83.611824 
z"/>
<path fill="#73204E" opacity="1.000000" stroke="none" 
	d="
M203.100555,71.235695 
	C203.363129,71.109795 203.715271,71.264572 204.152100,71.724075 
	C203.887894,71.858002 203.539017,71.687187 203.100555,71.235695 
z"/>
<path fill="#731A4D" opacity="1.000000" stroke="none" 
	d="
M94.879662,90.691986 
	C100.717804,108.747475 84.850105,130.574783 70.997360,135.376465 
	C69.086586,136.038788 66.800087,135.617126 64.452141,135.414246 
	C72.839653,134.591156 78.711716,129.217484 83.264984,122.865372 
	C87.254013,117.300415 90.218651,110.876823 92.867142,104.512634 
	C95.199089,98.909088 94.494720,93.093201 91.054810,87.387474 
	C91.069580,86.926285 91.292336,86.707664 91.292336,86.707664 
	C92.439232,87.938477 93.586128,89.169289 94.879662,90.691986 
z"/>
<path fill="#731A4D" opacity="1.000000" stroke="none" 
	d="
M89.891556,86.119881 
	C89.709793,85.931465 89.528030,85.743042 89.346268,85.554626 
	C89.572449,85.502983 89.798630,85.451332 90.043999,85.669846 
	C90.063187,85.940018 89.891556,86.119881 89.891556,86.119881 
z"/>
<path fill="#731A4D" opacity="1.000000" stroke="none" 
	d="
M90.957214,87.034576 
	C90.536049,87.022102 90.285698,86.826523 89.992676,86.338005 
	C89.891556,86.119881 90.063187,85.940018 90.153168,85.847771 
	C90.554985,85.866524 90.815002,86.050690 91.157761,86.507843 
	C91.292336,86.707664 91.069580,86.926285 90.957214,87.034576 
z"/>
<path fill="#731A4D" opacity="1.000000" stroke="none" 
	d="
M40.288803,221.596954 
	C56.546597,220.704971 70.046204,203.343658 65.575920,187.353271 
	C70.565269,191.246674 68.726379,195.960983 69.045036,200.541595 
	C64.854095,210.061371 59.265522,217.956772 49.539497,221.584778 
	C46.803825,222.605225 43.417175,221.880508 40.288803,221.596954 
z"/>
<path fill="#E83C48" opacity="1.000000" stroke="none" 
	d="
M129.850540,172.892136 
	C129.850540,172.892136 129.889847,172.575684 130.218613,172.248505 
	C141.076752,159.027100 154.387589,150.525482 170.811447,147.624161 
	C176.740768,146.576706 182.953583,147.133987 189.037033,146.958984 
	C189.037033,146.958984 188.993546,146.992569 189.001785,147.284393 
	C189.590195,147.766113 190.170349,147.955978 190.964478,148.393890 
	C191.803391,148.751190 192.428360,148.860428 193.053329,148.969681 
	C196.825043,151.520691 200.599304,154.069748 200.626282,159.665344 
	C197.287598,165.131042 192.622772,167.963715 187.414078,170.362106 
	C181.691406,172.997147 176.299103,176.341003 170.630051,179.103500 
	C164.270737,182.202347 157.762772,184.996109 151.027725,187.653564 
	C142.870895,186.226486 136.053452,183.123932 130.838287,176.450623 
	C130.402466,175.064453 130.126495,173.978287 129.850540,172.892136 
z"/>
<path fill="#C02F49" opacity="1.000000" stroke="none" 
	d="
M151.319489,187.922623 
	C157.762772,184.996109 164.270737,182.202347 170.630051,179.103500 
	C176.299103,176.341003 181.691406,172.997147 187.414078,170.362106 
	C192.622772,167.963715 197.287598,165.131042 200.633255,160.040985 
	C202.978928,164.083344 202.289276,166.813263 197.851822,169.127563 
	C183.563660,176.579346 169.412033,184.303207 155.360687,192.194427 
	C148.279877,196.170990 131.969772,192.220200 128.106964,185.004059 
	C125.955055,180.984070 126.472534,176.998154 129.584122,173.133850 
	C130.126495,173.978287 130.402466,175.064453 130.806198,176.847137 
	C133.015488,185.249817 143.719635,190.699661 151.319489,187.922623 
z"/>
<path fill="#EEA6AD" opacity="1.000000" stroke="none" 
	d="
M188.893845,146.606964 
	C182.953583,147.133987 176.740768,146.576706 170.811447,147.624161 
	C154.387589,150.525482 141.076752,159.027100 130.238770,172.090332 
	C129.838470,171.727753 129.491348,171.059937 129.691757,170.684082 
	C138.504410,154.156784 167.657959,140.990265 185.947021,145.252884 
	C186.907242,145.476685 187.817261,145.915970 188.893845,146.606964 
z"/>
<path fill="#EEA6AD" opacity="1.000000" stroke="none" 
	d="
M190.750519,148.145859 
	C190.170349,147.955978 189.590195,147.766113 189.017609,147.261169 
	C189.938324,147.098480 190.851456,147.250839 191.633682,147.707214 
	C191.252029,148.056091 191.001266,148.100967 190.750519,148.145859 
z"/>
<path fill="#ED99A1" opacity="1.000000" stroke="none" 
	d="
M190.964478,148.393890 
	C191.001266,148.100967 191.252029,148.056091 191.884155,147.968048 
	C192.616516,147.974716 192.849701,148.167282 193.009216,148.736115 
	C192.428360,148.860428 191.803391,148.751190 190.964478,148.393890 
z"/>
<path fill="#E83C48" opacity="1.000000" stroke="none" 
	d="
M164.970673,98.961464 
	C162.667435,100.474709 160.331497,101.940788 158.066956,103.509865 
	C150.748245,108.580917 143.184647,113.081161 133.897491,113.088554 
	C127.698540,113.093483 125.809341,110.121796 128.231979,103.421616 
	C128.721954,102.232895 128.844498,101.595985 128.967026,100.959076 
	C128.967026,100.959076 128.999207,101.000710 129.319855,101.130798 
	C130.795929,100.332878 131.964005,99.420135 133.104797,98.474464 
	C142.657761,90.555527 153.018982,85.161934 165.996872,87.910187 
	C167.325180,89.695969 168.653488,91.481758 169.714905,93.634323 
	C168.968964,94.215652 168.489944,94.430199 167.752655,94.799950 
	C167.319275,95.302383 167.144150,95.649605 166.986633,95.999863 
	C167.004242,96.002892 166.993546,95.968819 166.736603,96.035049 
	C166.308182,96.399384 166.136703,96.697502 165.984665,96.997780 
	C166.004105,96.999939 165.984360,96.966156 165.699219,97.106804 
	C165.264694,97.826576 165.115326,98.405701 164.982269,98.986092 
	C164.998581,98.987358 164.970673,98.961464 164.970673,98.961464 
z"/>
<path fill="#BC2E49" opacity="1.000000" stroke="none" 
	d="
M168.010910,94.644745 
	C168.489944,94.430199 168.968964,94.215652 169.720001,93.999466 
	C169.301407,96.836220 169.445923,100.356628 167.779022,102.397705 
	C159.530579,112.497841 148.408081,117.844849 135.668579,119.757164 
	C129.975479,120.611740 125.620834,117.354660 124.126015,111.376495 
	C131.672943,119.202354 139.814270,116.319778 147.041641,112.601402 
	C153.515854,109.270508 159.017197,104.048630 164.959229,99.311249 
	C164.970673,98.961464 164.998581,98.987358 165.266632,98.852692 
	C165.684570,98.134071 165.834457,97.550117 165.984360,96.966156 
	C165.984360,96.966156 166.004105,96.999939 166.242828,96.932983 
	C166.652206,96.566963 166.822876,96.267891 166.993561,95.968826 
	C166.993546,95.968819 167.004242,96.002892 167.272232,95.884880 
	C167.697113,95.392830 167.854004,95.018784 168.010910,94.644745 
z"/>
<path fill="#EEA7AD" opacity="1.000000" stroke="none" 
	d="
M165.910187,87.554581 
	C153.018982,85.161934 142.657761,90.555527 133.104797,98.474464 
	C131.964005,99.420135 130.795929,100.332878 129.298615,101.115059 
	C134.486710,91.446701 150.395020,83.488922 160.895493,85.158798 
	C162.603134,85.430367 164.184021,86.498840 165.910187,87.554581 
z"/>
<path fill="#EEA7AD" opacity="1.000000" stroke="none" 
	d="
M128.677933,101.021301 
	C128.844498,101.595985 128.721954,102.232895 128.280396,103.043823 
	C128.103867,102.506409 128.246353,101.794968 128.677933,101.021301 
z"/>
<path fill="#761B4D" opacity="1.000000" stroke="none" 
	d="
M151.027725,187.653564 
	C143.719635,190.699661 133.015488,185.249817 130.966064,177.147156 
	C136.053452,183.123932 142.870895,186.226486 151.027725,187.653564 
z"/>
<path fill="#731F4D" opacity="1.000000" stroke="none" 
	d="
M165.699219,97.106804 
	C165.834457,97.550117 165.684570,98.134071 165.250305,98.851425 
	C165.115326,98.405701 165.264694,97.826576 165.699219,97.106804 
z"/>
<path fill="#731F4D" opacity="1.000000" stroke="none" 
	d="
M167.752655,94.799950 
	C167.854004,95.018784 167.697113,95.392830 167.254623,95.881851 
	C167.144150,95.649605 167.319275,95.302383 167.752655,94.799950 
z"/>
<path fill="#731F4D" opacity="1.000000" stroke="none" 
	d="
M166.736618,96.035049 
	C166.822876,96.267891 166.652206,96.566963 166.223389,96.930832 
	C166.136703,96.697502 166.308182,96.399384 166.736618,96.035049 
z"/>
</svg>